<svg width="32" height="33" viewBox="0 0 32 33" fill="none" xmlns="http://www.w3.org/2000/svg">
<path d="M16.16 33C15.7067 33 15.3267 32.8243 15.02 32.4729C14.7133 32.1215 14.56 31.6861 14.56 31.1667C14.56 30.9528 14.6 30.7313 14.68 30.5021C14.76 30.2729 14.88 30.0667 15.04 29.8833L22.44 21.4042L21.28 20.075L13.92 28.5542C13.76 28.7375 13.5867 28.875 13.4 28.9667C13.2133 29.0583 13.0133 29.1042 12.8 29.1042C12.3467 29.1042 11.9667 28.9285 11.66 28.5771C11.3533 28.2257 11.2 27.7903 11.2 27.2708C11.2 26.9653 11.24 26.7132 11.32 26.5146C11.4 26.316 11.5067 26.1403 11.64 25.9875L19.04 17.5083L17.92 16.225L10.52 24.6583C10.36 24.8417 10.1867 24.9792 10 25.0708C9.81333 25.1625 9.6 25.2083 9.36 25.2083C8.93333 25.2083 8.56 25.025 8.24 24.6583C7.92 24.2917 7.76 23.8639 7.76 23.375C7.76 23.1306 7.8 22.9014 7.88 22.6875C7.96 22.4736 8.08 22.275 8.24 22.0917L15.64 13.6125L14.48 12.3292L7.12 20.8083C6.98667 20.9611 6.82667 21.0833 6.64 21.175C6.45333 21.2667 6.22667 21.3125 5.96 21.3125C5.50667 21.3125 5.12667 21.1368 4.82 20.7854C4.51333 20.434 4.36 19.9986 4.36 19.4792C4.36 19.2347 4.4 19.0056 4.48 18.7917C4.56 18.5778 4.68 18.3792 4.84 18.1958L13.76 7.975L19.76 14.8958C20.0533 15.2319 20.4 15.4993 20.8 15.6979C21.2 15.8965 21.6 15.9958 22 15.9958C22.8533 15.9958 23.6 15.6521 24.24 14.9646C24.88 14.2771 25.2 13.3986 25.2 12.3292C25.2 11.9014 25.1333 11.4583 25 11C24.8667 10.5417 24.6267 10.1139 24.28 9.71667L17.12 1.5125C17.5733 1.02361 18.08 0.649306 18.64 0.389583C19.2 0.129861 19.76 0 20.32 0C21.0133 0 21.6533 0.129861 22.24 0.389583C22.8267 0.649306 23.36 1.05417 23.84 1.60417L30.6 9.39583C31.08 9.94583 31.4333 10.5569 31.66 11.2292C31.8867 11.9014 32 12.6806 32 13.5667C32 14.1778 31.88 14.7965 31.64 15.4229C31.4 16.0493 31.0533 16.6222 30.6 17.1417L17.28 32.45C17.0667 32.6944 16.88 32.8472 16.72 32.9083C16.56 32.9694 16.3733 33 16.16 33ZM2.44 18.3333L1.4 17.1417C0.946667 16.6528 0.6 16.0722 0.36 15.4C0.12 14.7278 0 14.025 0 13.2917C0 12.4972 0.133333 11.7639 0.4 11.0917C0.666667 10.4194 1 9.85417 1.4 9.39583L8.16 1.60417C8.58667 1.11528 9.09333 0.725694 9.68 0.435417C10.2667 0.145139 10.84 0 11.4 0C12.12 0 12.76 0.114583 13.32 0.34375C13.88 0.572917 14.4267 0.993056 14.96 1.60417L23.16 11C23.32 11.1833 23.44 11.3819 23.52 11.5958C23.6 11.8097 23.64 12.0389 23.64 12.2833C23.64 12.7722 23.48 13.2 23.16 13.5667C22.84 13.9333 22.4667 14.1167 22.04 14.1167C21.8 14.1167 21.6 14.0785 21.44 14.0021C21.28 13.9257 21.1067 13.7806 20.92 13.5667L13.72 5.40833L2.44 18.3333Z" fill="#30C1FF"/>
</svg>
