<svg width="30" height="30" viewBox="0 0 30 30" fill="none" xmlns="http://www.w3.org/2000/svg">
<path d="M3 30V14.2857H0V5.71429H7.8C7.675 5.5 7.59375 5.27381 7.55625 5.03571C7.51875 4.79762 7.5 4.54762 7.5 4.28571C7.5 3.09524 7.9375 2.08333 8.8125 1.25C9.6875 0.416667 10.75 0 12 0C12.575 0 13.1125 0.10119 13.6125 0.303571C14.1125 0.505952 14.575 0.785714 15 1.14286C15.425 0.761905 15.8875 0.476191 16.3875 0.285714C16.8875 0.0952381 17.425 0 18 0C19.25 0 20.3125 0.416667 21.1875 1.25C22.0625 2.08333 22.5 3.09524 22.5 4.28571C22.5 4.54762 22.475 4.79167 22.425 5.01786C22.375 5.24405 22.3 5.47619 22.2 5.71429H30V14.2857H27V30H3ZM18 2.85714C17.575 2.85714 17.2188 2.99405 16.9313 3.26786C16.6438 3.54167 16.5 3.88095 16.5 4.28571C16.5 4.69048 16.6438 5.02976 16.9313 5.30357C17.2188 5.57738 17.575 5.71429 18 5.71429C18.425 5.71429 18.7813 5.57738 19.0688 5.30357C19.3563 5.02976 19.5 4.69048 19.5 4.28571C19.5 3.88095 19.3563 3.54167 19.0688 3.26786C18.7813 2.99405 18.425 2.85714 18 2.85714ZM10.5 4.28571C10.5 4.69048 10.6438 5.02976 10.9313 5.30357C11.2188 5.57738 11.575 5.71429 12 5.71429C12.425 5.71429 12.7813 5.57738 13.0688 5.30357C13.3563 5.02976 13.5 4.69048 13.5 4.28571C13.5 3.88095 13.3563 3.54167 13.0688 3.26786C12.7813 2.99405 12.425 2.85714 12 2.85714C11.575 2.85714 11.2188 2.99405 10.9313 3.26786C10.6438 3.54167 10.5 3.88095 10.5 4.28571ZM3 8.57143V11.4286H13.5V8.57143H3ZM13.5 27.1429V14.2857H6V27.1429H13.5ZM16.5 27.1429H24V14.2857H16.5V27.1429ZM27 11.4286V8.57143H16.5V11.4286H27Z" fill="#30C1FF"/>
</svg>
