<svg width="30" height="34" viewBox="0 0 30 34" fill="none" xmlns="http://www.w3.org/2000/svg">
<path d="M3.33333 33.3333C2.41667 33.3333 1.63194 33.0069 0.979167 32.3542C0.326389 31.7014 0 30.9167 0 30V6.66667C0 5.75 0.326389 4.96528 0.979167 4.3125C1.63194 3.65972 2.41667 3.33333 3.33333 3.33333H10.3333C10.7222 2.33333 11.3333 1.52778 12.1667 0.916667C13 0.305556 13.9444 0 15 0C16.0556 0 17 0.305556 17.8333 0.916667C18.6667 1.52778 19.2778 2.33333 19.6667 3.33333H26.6667C27.5833 3.33333 28.3681 3.65972 29.0208 4.3125C29.6736 4.96528 30 5.75 30 6.66667V30C30 30.9167 29.6736 31.7014 29.0208 32.3542C28.3681 33.0069 27.5833 33.3333 26.6667 33.3333H3.33333ZM15 5.41667C15.3611 5.41667 15.6597 5.29861 15.8958 5.0625C16.1319 4.82639 16.25 4.52778 16.25 4.16667C16.25 3.80556 16.1319 3.50694 15.8958 3.27083C15.6597 3.03472 15.3611 2.91667 15 2.91667C14.6389 2.91667 14.3403 3.03472 14.1042 3.27083C13.8681 3.50694 13.75 3.80556 13.75 4.16667C13.75 4.52778 13.8681 4.82639 14.1042 5.0625C14.3403 5.29861 14.6389 5.41667 15 5.41667ZM15 20C16.6111 20 17.9861 19.4306 19.125 18.2917C20.2639 17.1528 20.8333 15.7778 20.8333 14.1667C20.8333 12.5556 20.2639 11.1806 19.125 10.0417C17.9861 8.90278 16.6111 8.33333 15 8.33333C13.3889 8.33333 12.0139 8.90278 10.875 10.0417C9.73611 11.1806 9.16667 12.5556 9.16667 14.1667C9.16667 15.7778 9.73611 17.1528 10.875 18.2917C12.0139 19.4306 13.3889 20 15 20ZM3.33333 30H26.6667V28.0833C25.1667 26.6111 23.4236 25.4514 21.4375 24.6042C19.4514 23.7569 17.3056 23.3333 15 23.3333C12.6944 23.3333 10.5486 23.7569 8.5625 24.6042C6.57639 25.4514 4.83333 26.6111 3.33333 28.0833V30Z" fill="#30C1FF"/>
</svg>
