<svg width="676" height="324" viewBox="0 0 676 324" fill="none" xmlns="http://www.w3.org/2000/svg">
<path d="M0.122528 147.595C27.1225 144.262 81.1225 149.995 81.1225 199.595C81.1225 249.195 130.123 272.929 154.623 278.595C167.789 265.262 206.423 243.795 255.623 264.595C317.123 290.595 422.623 357.095 417.123 300.595C411.623 244.095 528.123 212.595 550.123 264.595" stroke="#174051" stroke-width="2"/>
<path d="M15.6225 129.367C42.6225 126.034 96.6225 131.767 96.6225 181.367C96.6225 230.967 145.623 254.701 170.123 260.367C183.289 247.034 221.923 225.567 271.123 246.367C332.623 272.367 438.123 338.867 432.623 282.367C427.123 225.867 543.623 194.367 565.623 246.367" stroke="#174051" stroke-width="2"/>
<path d="M31.1225 111.139C58.1225 107.806 112.123 113.539 112.123 163.139C112.123 212.739 161.123 236.473 185.623 242.139C198.789 228.806 237.423 207.339 286.623 228.139C348.123 254.139 453.623 320.639 448.123 264.139C442.623 207.639 559.123 176.139 581.123 228.139" stroke="#174051" stroke-width="2"/>
<path d="M46.6225 92.9115C73.6225 89.5782 127.623 95.3115 127.623 144.912C127.623 194.512 176.623 218.245 201.123 223.912C214.289 210.578 252.923 189.112 302.123 209.912C363.623 235.912 469.123 302.412 463.623 245.912C458.123 189.412 574.623 157.912 596.623 209.912" stroke="#174051" stroke-width="2"/>
<path d="M62.1225 74.6836C89.1225 71.3503 143.123 77.0836 143.123 126.684C143.123 176.284 192.123 200.017 216.623 205.684C229.789 192.35 268.423 170.884 317.623 191.684C379.123 217.684 484.623 284.184 479.123 227.684C473.623 171.184 590.123 139.684 612.123 191.684" stroke="#174051" stroke-width="2"/>
<path d="M77.6225 56.4557C104.623 53.1224 158.623 58.8557 158.623 108.456C158.623 158.056 207.623 181.789 232.123 187.456C245.289 174.122 283.923 152.656 333.123 173.456C394.623 199.456 500.123 265.956 494.623 209.456C489.123 152.956 605.623 121.456 627.623 173.456" stroke="#174051" stroke-width="2"/>
<path d="M93.1225 38.2278C120.123 34.8945 174.123 40.6278 174.123 90.2278C174.123 139.828 223.123 163.561 247.623 169.228C260.789 155.895 299.423 134.428 348.623 155.228C410.123 181.228 515.623 247.728 510.123 191.228C504.623 134.728 621.123 103.228 643.123 155.228" stroke="#174051" stroke-width="2"/>
<path d="M108.623 19.9999C135.623 16.6666 189.623 22.3999 189.623 71.9999C189.623 121.6 238.623 145.333 263.123 151C276.289 137.667 314.923 116.2 364.123 137C425.623 163 531.123 229.5 525.623 173C520.123 116.5 636.623 84.9999 658.623 137" stroke="#174051" stroke-width="2"/>
<path d="M124.123 1.77201C151.123 -1.56133 205.123 4.17201 205.123 53.772C205.123 103.372 254.123 127.105 278.623 132.772C291.789 119.439 330.423 97.972 379.623 118.772C441.123 144.772 546.623 211.272 541.123 154.772C535.623 98.272 652.123 66.772 674.123 118.772" stroke="#174051" stroke-width="2"/>
</svg>
