<svg width="137" height="66" viewBox="0 0 137 66" fill="none" xmlns="http://www.w3.org/2000/svg">
<path d="M0 39.1016V0H7.51953L20.7812 29.668L33.7695 0H41.0156V39.1016H34.3164V11.8672L23.707 39.1016H17.5273L6.69922 11.8672V39.1016H0Z" fill="white"/>
<path d="M54.4141 24.6367C54.4141 30.6341 56.7383 33.6328 61.3867 33.6328C66.0352 33.6328 68.3594 30.6341 68.3594 24.6367C68.3594 18.7852 66.0352 15.8594 61.3867 15.8594C56.7383 15.8594 54.4141 18.7852 54.4141 24.6367ZM47.168 24.7461C47.168 15.1211 51.9076 10.3086 61.3867 10.3086C70.8659 10.3086 75.6055 15.1211 75.6055 24.7461C75.6055 34.3529 70.8659 39.1562 61.3867 39.1562C51.944 39.1562 47.2044 34.3529 47.168 24.7461Z" fill="white"/>
<path d="M77.6562 10.3906H85.3125L92.2852 30.4609L99.5312 10.3906H107.188L95.5117 39.1016H88.6211L77.6562 10.3906Z" fill="white"/>
<path d="M122.719 10.3906C131.432 10.3906 135.789 14.8385 135.789 23.7344C135.789 24.9193 135.707 26.1042 135.543 27.2891H116.484C116.484 31.3359 119.456 33.3594 125.398 33.3594C128.297 33.3594 131.195 33.0859 134.094 32.5391V38.2812C131.56 38.8281 128.479 39.1016 124.852 39.1016C114.443 39.1016 109.238 34.207 109.238 24.418C109.238 15.0664 113.732 10.3906 122.719 10.3906ZM116.484 22.2578H128.734V22.0391C128.734 18.0651 126.729 16.0781 122.719 16.0781C118.891 16.0781 116.812 18.138 116.484 22.2578Z" fill="white"/>
<path d="M53.1172 60.5156C51.5 60.9844 49.8906 61.2188 48.2891 61.2188C42.4297 61.2188 40.082 58.3086 41.2461 52.4883C42.3477 46.9805 45.8281 44.2266 51.6875 44.2266C53.2891 44.2266 54.8047 44.4609 56.2344 44.9297L56.0234 45.9844C54.5938 45.5156 53.1562 45.2812 51.7109 45.2812C46.5156 45.2812 43.4375 47.6836 42.4766 52.4883C41.4531 57.6055 43.5391 60.1641 48.7344 60.1641C50.1797 60.1641 51.7109 59.9297 53.3281 59.4609L53.1172 60.5156Z" fill="white"/>
<path d="M68.9492 48.7969L66.4883 61.1016H65.4922L65.9961 57.4219C64.0664 59.875 61.9961 61.1016 59.7852 61.1016C57.6523 61.1016 56.8242 59.9102 57.3008 57.5273L59.0469 48.7969H60.2773L58.5312 57.5273C58.2031 59.1758 58.7148 60 60.0664 60C62.2461 60 64.3086 58.6992 66.2539 56.0977L67.7188 48.7969H68.9492Z" fill="white"/>
<path d="M70.25 61.1016L72.7109 48.7969H73.707L73.0625 53.1797C74.75 50.2578 76.5469 48.7969 78.4531 48.7969L78.207 50.0156C76.3477 50.0156 74.5625 51.4336 72.8516 54.2695L71.4805 61.1016H70.25Z" fill="white"/>
<path d="M78.2891 61.1016L80.75 48.7969H81.7461L81.1016 53.1797C82.7891 50.2578 84.5859 48.7969 86.4922 48.7969L86.2461 50.0156C84.3867 50.0156 82.6016 51.4336 80.8906 54.2695L79.5195 61.1016H78.2891Z" fill="white"/>
<path d="M93.7461 48.7969C96.7305 48.7969 98.0078 49.8672 97.5781 52.0078C97.1328 54.2266 95.4648 55.3359 92.5742 55.3359H88.1211C87.4961 58.4766 88.6523 60.0469 91.5898 60.0469C93.2227 60.0469 94.6914 59.5 95.9961 58.4062L95.7617 59.5781C94.4727 60.5938 93.0117 61.1016 91.3789 61.1016C87.6211 61.1016 86.1602 59.0039 86.9961 54.8086C87.8008 50.8008 90.0508 48.7969 93.7461 48.7969ZM88.3438 54.2344H92.7734C94.8594 54.2344 96.0547 53.4805 96.3594 51.9727C96.6406 50.543 95.6992 49.8281 93.5352 49.8281C90.8008 49.8281 89.0703 51.2969 88.3438 54.2344Z" fill="white"/>
<path d="M98.9375 61.1016L101.398 48.7969H102.395L101.891 52.4766C103.82 50.0234 105.812 48.7969 107.867 48.7969C110.156 48.7969 111.062 49.9883 110.586 52.3711L108.84 61.1016H107.609L109.355 52.3711C109.684 50.7227 109.094 49.8984 107.586 49.8984C105.562 49.8984 103.578 51.1992 101.633 53.8008L100.168 61.1016H98.9375Z" fill="white"/>
<path d="M121.344 59.5781C120.125 60.5938 118.734 61.1016 117.172 61.1016C113.734 61.1016 112.434 59.0117 113.27 54.832C114.074 50.8086 116.391 48.7969 120.219 48.7969C121.391 48.7969 122.461 48.9141 123.43 49.1484L123.219 50.2031C122.172 49.9688 121.141 49.8516 120.125 49.8516C117.117 49.8516 115.281 51.5117 114.617 54.832C113.922 58.3086 114.883 60.0469 117.5 60.0469C118.906 60.0469 120.266 59.5 121.578 58.4062L121.344 59.5781Z" fill="white"/>
<path d="M133.379 57.4219C131.449 59.875 129.379 61.1016 127.168 61.1016C125.035 61.1016 124.207 59.9102 124.684 57.5273L126.43 48.7969H127.66L125.914 57.5273C125.586 59.1758 126.098 60 127.449 60C129.629 60 131.691 58.6992 133.637 56.0977L135.102 48.7969H136.332L133.871 61.1016C133.277 64.0703 131.172 65.5547 127.555 65.5547C126.039 65.5547 124.734 65.3594 123.641 64.9688L123.852 63.9141C124.969 64.3047 126.281 64.5 127.789 64.5C130.57 64.5 132.188 63.3672 132.641 61.1016L133.379 57.4219Z" fill="white"/>
</svg>
